# xmcd
#
# Track frame offsets: 
#        150
#        20010
#        35165
#        59465
#        79819
#        101609
#        117552
#        137696
#        164786
#        184312
#        208287
#        224946
#        240913
#        264813
#        281838
#        306039
#        331735
#
# Disc length: 4741 seconds
#
# Revision: 0
# Processed by: cddbd v1.5.2PL0 Copyright (c) Steve Scherf et al.
# Submitted via: ExactAudioCopy v1.3
#
DISCID=0c128311
DTITLE=Various Artist - Akella Presents - vol.202 - Various Styles Of
DTITLE=Blues  CD1
DYEAR=2019
DGENRE=Blues
TTITLE0=Christone Kingfish Ingram - Believe These Blues
TTITLE1=Gary Smith Blues Band - Up The Line
TTITLE2=In Layman Terms - Fake It Til I Make It
TTITLE3=Billy Branch and The Sons Of Blues - Mellow Down Easy
TTITLE4=Julian Sas - Tell Me Why
TTITLE5=Blues Saraceno - The Devil You Know
TTITLE6=Xavier Lynn - Hoochie Coochie Man
TTITLE7=Glenn Braadland Band - House Of The Rising Sun
TTITLE8=Dov Hammer - Tear It Down
TTITLE9=M Train - You Damn Right This Is Wrong
TTITLE10=Trevor Finlay - Something About the Cold
TTITLE11=Jeff Liberman - Sunshine Into Rain
TTITLE12=Alvaro Assmar and Mojo Blues Band - Rambling On My Mind
TTITLE13=Uni Debess - Call Me The Breeze
TTITLE14=Fillmore Slim - Little Bluebird
TTITLE15=Eliza Neals - Blackish Gray
TTITLE16=Peter Schrammel - Certain Feeling
EXTD=
EXTT0=
EXTT1=
EXTT2=
EXTT3=
EXTT4=
EXTT5=
EXTT6=
EXTT7=
EXTT8=
EXTT9=
EXTT10=
EXTT11=
EXTT12=
EXTT13=
EXTT14=
EXTT15=
EXTT16=
PLAYORDER=
